<svg xmlns="http://www.w3.org/2000/svg" xmlns:xlink="http://www.w3.org/1999/xlink" id="Layer_1" x="0px" y="0px" viewBox="0 0 471 109" style="enable-background:new 0 0 471 109;" xml:space="preserve"><style type="text/css">	.st0{fill:#F78E1E;}	.st1{fill:#003D5B;}	.st2{fill:#25B7C8;}	.st3{fill:#FBAD18;}	.st4{fill:#2ED8C3;}	.st5{fill-rule:evenodd;clip-rule:evenodd;fill:#003D5B;}	.st6{fill:none;stroke:#023D5B;stroke-width:5;stroke-miterlimit:10;}</style><g>	<path class="st0" d="M267.4,49.2h-14v-14c0-3.3-2.7-6-6-6s-6,2.7-6,6v14h-14c-3.3,0-6,2.7-6,6s2.7,6,6,6h14v14c0,3.3,2.7,6,6,6  s6-2.7,6-6v-14h14c3.3,0,6-2.7,6-6S270.7,49.2,267.4,49.2z"></path>	<g>		<g>			<path class="st1" d="M1,22.8c-4.5,13.6,6.4,30.3,27.2,45.6C12.7,54.9,5.1,40.9,9,29.2C17,4.7,71.5-1.7,130.8,16.5    c16.3,5,31.3,9.4,44.3,16.3c-14.6-8.7-32.5-15.9-52.3-22C63.6-7.4,9-1.6,1,22.8"></path>			<path class="st2" d="M67,80.1C45.3,67.6,32.7,51.7,36.1,38.7c2.4-9.2,12.4-15.6,26.7-18c-18.2,1.5-32.2,8.5-35,19.1    c-3.6,13.7,9.9,30.2,33.4,42.9L67,80.1"></path>			<path class="st0" d="M64.8,47.4c3.8-11.6,25.6-15.6,57.9-5.4c14.6,4.6,27,11.1,35,18c-7.9-5.8-18.7-11.2-31.2-15    c-28.2-8.6-54.1-6.2-57.9,5.4C66.8,56,70.4,62.7,77.7,69C67.9,61.8,62.7,53.8,64.8,47.4"></path>			<path class="st3" d="M135.6,70.5c-2.8,7-18,5.4-30.8,0.9c-6.7-2.3-12.2-5.6-15.8-8.9c3.5,2.8,9.5,5.2,14.2,6.7    c12.9,4.2,25.8,2.8,27.7-1.1c3.7-7.6-8.3-12.2-14.8-14.2c5.3,1.2,7.7,2.3,11.4,4C135.3,62.4,137,67,135.6,70.5"></path>			<path class="st4" d="M209,74.9c-11.3-17.7-34.9-36.4-69.1-48c-29.8-10-64-15.2-85.9-13.8c21.1,0.7,44.5,4.1,73.2,13.1    c36.2,11.3,61,30.8,72.6,48.9c0,0,2.2-0.1,4.2-0.2C206.9,74.7,209,74.9,209,74.9"></path>		</g>		<g id="Full_Color_Logo_00000058586056934504830670000011736800415486569639_">			<path class="st5" d="M18.2,98.2c0.4,0.4,1,0.6,2,0.6c1.2,0,2.2-0.5,2.2-1.2c0-1.2-3.3-3-8.7-3c-7.7,0-12,3.3-12,7.4    c0,3.9,3.8,7.6,12.1,7.6c5.4,0,8.3-1.7,8.3-2.6c0-0.4-0.6-0.7-1.2-0.7c-0.4,0-0.6,0.1-1.4,0.4c-0.6,0.2-2.2,0.8-4.5,0.8    c-4.3,0-8-2.2-8-6.2c0-3.2,2.8-5.1,6.2-5.1C15.9,96.3,17.1,97.3,18.2,98.2"></path>			<path class="st5" d="M47.4,101.7c-0.3-3.8-4.3-7.1-11.7-7.1c-7.6,0-11.9,3.3-11.9,7.5c0,4.9,5.5,7.5,11.9,7.5    C42.7,109.6,47.7,106.3,47.4,101.7 M42.2,101.8c0,1.4-0.3,3-1.4,4.1c-1.4,1.3-3.4,1.8-5.1,1.8c-1.4,0-5.3-0.4-6.4-3.7    c-0.2-0.6-0.3-1.2-0.3-2.1c0-1.1,0.2-4,3.8-5.1c0.8-0.3,1.8-0.4,2.8-0.4c0.7,0,3.1,0,4.9,1.6C41.9,99.2,42.1,100.7,42.2,101.8z"></path>			<path class="st5" d="M55.5,95.3C55,95,54.9,95,54.3,95h-2.8c-0.5,0-0.8,0-0.8,0.4v13.5c0,0.4,0.2,0.4,0.8,0.4h2.3    c0.6,0,0.7-0.1,0.7-0.4V99l12.8,9.9c0.4,0.3,0.5,0.4,1,0.4h2.1c0.6,0,0.8-0.1,0.8-0.4V95.4c0-0.3-0.2-0.4-0.7-0.4H68    c-0.6,0-0.7,0.1-0.7,0.4v9L55.5,95.3"></path>			<path class="st5" d="M91.1,98.2c0.4,0.4,1,0.6,2,0.6c1.2,0,2.2-0.5,2.2-1.2c0-1.2-3.3-3-8.7-3c-7.6,0-12,3.3-12,7.4    c0,3.9,3.8,7.6,12.1,7.6c5.4,0,8.3-1.7,8.3-2.6c0-0.4-0.6-0.7-1.2-0.7c-0.4,0-0.6,0.1-1.4,0.4c-0.6,0.2-2.2,0.8-4.5,0.8    c-4.4,0-8-2.2-8-6.2c0-3.2,2.8-5.1,6.2-5.1C88.9,96.3,90,97.3,91.1,98.2"></path>			<path class="st5" d="M111.8,102.7c0.6,0,0.8,0,0.8-0.4v-1c0-0.4-0.2-0.4-0.8-0.4h-7.4v-4.2h8.8c0.6,0,0.9,0,0.9-0.4v-1    c0-0.4-0.3-0.4-0.9-0.4h-12.9c-0.7,0-0.9,0.1-0.9,0.6v13.3c0,0.4,0.3,0.5,0.9,0.5h12.9c0.6,0,0.8-0.1,0.9-0.3v-1.2    c0-0.4-0.3-0.4-0.9-0.4h-8.8v-4.7L111.8,102.7"></path>			<path class="st5" d="M123.1,95.3c-0.4-0.3-0.6-0.4-1.2-0.4h-2.8c-0.5,0-0.8,0-0.8,0.4v13.5c0,0.4,0.2,0.4,0.8,0.4h2.3    c0.6,0,0.7-0.1,0.7-0.4V99l12.8,9.9c0.4,0.3,0.5,0.4,1,0.4h2.1c0.6,0,0.8-0.1,0.8-0.4V95.4c0-0.3-0.1-0.4-0.7-0.4h-2.3    c-0.6,0-0.7,0.1-0.7,0.4v9L123.1,95.3"></path>			<path class="st5" d="M159.2,96.8c0.7,0,0.8-0.1,0.8-0.4v-1c0-0.4-0.3-0.4-0.8-0.4h-16.3c-0.6,0-0.8,0.1-0.8,0.4v0.9    c0,0.3,0.1,0.4,0.8,0.4h5.6v12c0,0.4,0.2,0.5,0.9,0.5h3.4c0.6,0,0.8-0.1,0.8-0.5v-12L159.2,96.8"></path>			<path class="st5" d="M163.2,108.9c0,0.4,0.3,0.4,0.8,0.4h3.2c0.7,0,0.9-0.1,0.9-0.5v-5.1c0-0.2,0-0.5,0.8-0.5    c0.7,0,1.1,0.3,1.3,0.5l5.6,5.2c0.4,0.4,0.4,0.4,1.2,0.4h3.8c0.3,0,0.7,0,0.7-0.3c0-0.1-0.1-0.3-0.3-0.4l-6.9-6    c2.6-0.4,5.8-1.6,5.8-3.8c0-1.1-0.8-2.2-2.4-3c-2.2-1-5.5-1-7.7-1c-2.4,0-5.3,0.1-6.1,0.3c-0.5,0.1-0.6,0.2-0.6,0.7L163.2,108.9     M168.1,96.4c0.4,0,0.9-0.1,1.7-0.1c1.4,0,5.3,0,5.3,2.7c0,1.9-2.3,2.6-4.5,2.8c-0.6,0-1,0-2.4,0L168.1,96.4L168.1,96.4z"></path>			<path class="st5" d="M189.7,95.4c0-0.4-0.2-0.4-0.8-0.4h-3.5c-0.7,0-0.7,0.1-0.8,0.4v13.5c0,0.4,0.3,0.4,0.8,0.4h3.5    c0.5,0,0.8-0.1,0.8-0.4L189.7,95.4"></path>			<path class="st5" d="M207.3,108.9c0.4,0.4,0.5,0.4,1.2,0.4h3.6c0.3,0,0.7,0,0.7-0.3c0-0.1-0.1-0.2-0.2-0.4l-7.3-7.2l6.2-5.9    c0.1-0.1,0.2-0.2,0.2-0.4c0-0.3-0.5-0.3-0.7-0.3h-2.6c-0.7,0-0.7,0-1.1,0.4l-4.2,3.9l-4.1-3.9c-0.4-0.3-0.5-0.4-1.3-0.4h-3.3    c-0.2,0-0.1,0-0.1,0.3c0,0.1,0.1,0.2,0.2,0.3l5.8,6.4l-6.6,6.7c-0.3,0.2-0.3,0.3-0.3,0.4c0,0.2,0.5,0.2,0.7,0.2h2    c0.6,0,0.7-0.1,1.1-0.4l5.2-4.8L207.3,108.9"></path>			<path class="st1" d="M212.9,95.2h-0.5V95h1.3v0.2h-0.6v1.6h-0.2L212.9,95.2L212.9,95.2z"></path>			<path class="st1" d="M215.4,96c0-0.2,0-0.6,0-0.8h0c-0.1,0.2-0.1,0.4-0.2,0.7l-0.3,0.9h-0.2l-0.3-0.9c-0.1-0.2-0.2-0.5-0.2-0.7h0    c0,0.2,0,0.5,0,0.8l0,0.8h-0.2l0.1-1.8h0.3l0.3,0.9c0.1,0.2,0.1,0.4,0.2,0.6h0c0-0.2,0.1-0.4,0.2-0.6l0.3-0.9h0.3l0.1,1.8h-0.2    L215.4,96z"></path>		</g>	</g>	<g>		<path id="Path_00000132787121959892343800000012343870900702835371_" class="st6" d="M463.2,50.2c0,0-31.5,44.6-31.9,45.1   c-5,6.1-12.2,9.9-20,10.7c-7.9,0.6-15.7-2-21.6-7.2c-1.9-1.7-10.1-9.9-10.1-9.9s-8.3,8.3-10.2,9.9c-11.7,10.6-29.8,9.6-40.4-2.1   c-0.4-0.4-32.8-46.4-32.8-46.4c-9.4-12.9-6.5-30.9,6.4-40.3c11.5-8.4,27.5-7.1,37.5,3.1l9.5,9.5l9.6-9.5C371,2,387,1.6,398.5,11.4   c1.1,1,11.1,10.9,11.1,10.9l9.5-9.5c11.5-11.2,29.9-10.9,41.1,0.7C469.9,23.4,471.1,38.8,463.2,50.2"></path>		<path id="Shape_00000093881687503915219130000013999647852435166396_" class="st1" d="M339.2,39.1l-2.3,8.7l-2.3,8.7l-2.8-8.4   l-3-8.9h-3.2l-3,8.9l-2.5,8.4l-2-8.7l-2.3-8.7h-5l7.7,24.1h3.7l5.2-16.9l5.5,16.9h3.6l7.4-24.1L339.2,39.1L339.2,39.1L339.2,39.1z    M359.7,55.3c0.3-4.2-2.9-7.9-7.1-8.2c-0.2,0-0.4,0-0.7,0c-4.4-0.1-8.1,3.4-8.2,7.8c0,0.1,0,0.2,0,0.3c0,4.6,3.8,8.2,8.3,8.2   c0.1,0,0.2,0,0.3,0c2.4,0,4.7-0.7,6.6-2.1l-1.8-3.2c-1.1,1.1-2.6,1.6-4.1,1.6c-2.1,0.1-4.1-1.2-4.8-3.2h11.4   C359.7,56.7,359.7,55.3,359.7,55.3z M352,50.8c1.8-0.1,3.2,1.2,3.4,3h-7.3C348.4,51.9,350.1,50.6,352,50.8z M372.2,47.1   c-1.8,0-3.6,0.7-4.8,2.1V38.7h-4.6v24.4h3.6l0.2-2.1c1.4,1.6,3.4,2.5,5.5,2.5c4.3,0,7.8-3.5,7.7-7.8c0-0.1,0-0.2,0-0.4   c0.2-4.3-3.1-7.9-7.4-8.2C372.5,47.1,372.4,47.1,372.2,47.1z M371.3,59.4c-2.3,0-4.1-1.8-4.1-4.1s1.8-4.1,4.1-4.1   c2.2,0,3.9,1.8,3.9,3.9c0,0.1,0,0.1,0,0.2c0.2,2.1-1.3,3.9-3.4,4.1C371.6,59.4,371.5,59.4,371.3,59.4z M392.3,47.1   c-1.7-0.1-3.3,0.5-4.6,1.6v-10h-4.6v24.4h4.6v-8.2c-0.1-2,1.4-3.8,3.4-3.8c0.1,0,0.1,0,0.2,0c1.9,0,3.5,1.6,3.4,3.5   c0,0.1,0,0.2,0,0.3v8.2h4.6v-8.7c0.2-3.8-2.6-7-6.4-7.3C392.8,47.1,392.5,47.1,392.3,47.1z M418.7,55.3c0.3-4.2-2.9-7.9-7.1-8.2   c-0.2,0-0.4,0-0.7,0c-4.4-0.1-8.1,3.4-8.2,7.8c0,0.1,0,0.2,0,0.3c0,4.6,3.8,8.2,8.3,8.2c0.1,0,0.2,0,0.3,0c2.4,0,4.7-0.7,6.6-2.1   l-1.8-3.2c-1.1,1.1-2.6,1.6-4.1,1.6c-2.1,0.1-4.1-1.2-4.8-3.2h11.6C418.5,56.7,418.7,56,418.7,55.3z M411,50.8   c1.8-0.1,3.2,1.2,3.4,3h-7.3C407.4,51.9,409.1,50.6,411,50.8z M421.9,63.3h4.6V38.9h-4.6V63.3z M439.9,47.1   c-2-0.1-3.9,0.8-5.2,2.3l-0.2-1.8h-3.9v22.6h4.6v-8.4c1.2,1.3,3,2.1,4.8,2.1c4.2,0,7.6-3.5,7.5-7.7c0-0.2,0-0.3,0-0.5   c0.4-4.3-2.9-8.1-7.2-8.4C440.1,47.1,440,47.1,439.9,47.1z M439,59.4c-2.2,0.1-4-1.6-4.1-3.8c0-0.1,0-0.2,0-0.3   c-0.1-2.1,1.4-4,3.5-4.1c0.2,0,0.4,0,0.6,0c2.3,0,4.1,1.8,4.1,4.1C443.1,57.6,441.2,59.4,439,59.4L439,59.4z"></path>	</g></g></svg>